<svg xmlns="http://www.w3.org/2000/svg" xmlns:xlink="http://www.w3.org/1999/xlink" width="2000" zoomAndPan="magnify" viewBox="0 0 1500 1499.999933" height="2000" preserveAspectRatio="xMidYMid meet" version="1.0"><defs><clipPath id="34e621e6f5"><path d="M 519 37.539062 L 981.734375 37.539062 L 981.734375 321.789062 L 519 321.789062 Z M 519 37.539062 " clip-rule="nonzero"/></clipPath><clipPath id="a275cce1a8"><path d="M 519.253906 1178.207031 L 982 1178.207031 L 982 1462.457031 L 519.253906 1462.457031 Z M 519.253906 1178.207031 " clip-rule="nonzero"/></clipPath><clipPath id="e8b0500169"><path d="M 299.664062 231.320312 L 583.914062 231.320312 L 583.914062 694 L 299.664062 694 Z M 299.664062 231.320312 " clip-rule="nonzero"/></clipPath><clipPath id="9e25e73be7"><path d="M 916.273438 231.050781 L 1200.523438 231.050781 L 1200.523438 693.800781 L 916.273438 693.800781 Z M 916.273438 231.050781 " clip-rule="nonzero"/></clipPath><clipPath id="5aeeb2868c"><path d="M 298.160156 785.734375 L 583.910156 785.734375 L 583.910156 1249.984375 L 298.160156 1249.984375 Z M 298.160156 785.734375 " clip-rule="nonzero"/></clipPath><clipPath id="c001b7b6dc"><path d="M 917.164062 787.226562 L 1201.414062 787.226562 L 1201.414062 1249.976562 L 917.164062 1249.976562 Z M 917.164062 787.226562 " clip-rule="nonzero"/></clipPath><clipPath id="6d0fc1c1cf"><path d="M 299.488281 351.453125 L 583.917969 351.453125 L 583.917969 1110.066406 L 299.488281 1110.066406 Z M 299.488281 351.453125 " clip-rule="nonzero"/></clipPath><clipPath id="01075600dc"><path d="M 0.488281 0.453125 L 284.917969 0.453125 L 284.917969 759.066406 L 0.488281 759.066406 Z M 0.488281 0.453125 " clip-rule="nonzero"/></clipPath><clipPath id="32a28672c8"><rect x="0" width="285" y="0" height="760"/></clipPath><clipPath id="aa1a7a37da"><path d="M 916.273438 787.496094 L 1199.621094 787.496094 L 1199.621094 1133.273438 L 916.273438 1133.273438 Z M 916.273438 787.496094 " clip-rule="nonzero"/></clipPath><clipPath id="66fcaa169f"><path d="M 0.273438 0.496094 L 283.621094 0.496094 L 283.621094 346 L 0.273438 346 Z M 0.273438 0.496094 " clip-rule="nonzero"/></clipPath><clipPath id="40b582b6cb"><rect x="0" width="284" y="0" height="347"/></clipPath><clipPath id="1c888317ec"><path d="M 321 44 L 594 44 L 594 318 L 321 318 Z M 321 44 " clip-rule="nonzero"/></clipPath><clipPath id="e5e094a169"><path d="M 674.839844 235.710938 L 512.25 398.300781 L 320.445312 206.496094 L 483.035156 43.90625 Z M 674.839844 235.710938 " clip-rule="nonzero"/></clipPath><clipPath id="60862c7872"><path d="M 593.542969 317.003906 L 321.027344 207.074219 L 483.613281 44.488281 Z M 593.542969 317.003906 " clip-rule="nonzero"/></clipPath><clipPath id="e4f7112c75"><path d="M 0 0.398438 L 272.761719 0.398438 L 272.761719 273.039062 L 0 273.039062 Z M 0 0.398438 " clip-rule="nonzero"/></clipPath><clipPath id="47c352b6ad"><path d="M 353.839844 191.710938 L 191.25 354.300781 L -0.554688 162.496094 L 162.035156 -0.09375 Z M 353.839844 191.710938 " clip-rule="nonzero"/></clipPath><clipPath id="e886158476"><path d="M 272.542969 273.003906 L 0.0273438 163.074219 L 162.613281 0.488281 Z M 272.542969 273.003906 " clip-rule="nonzero"/></clipPath><clipPath id="36867d3eed"><rect x="0" width="273" y="0" height="274"/></clipPath><clipPath id="b83c6cffdd"><path d="M 655 593 L 1192.6875 593 L 1192.6875 982.707031 L 655 982.707031 Z M 655 593 " clip-rule="nonzero"/></clipPath><clipPath id="a0780daa1f"><path d="M 317 1174 L 590 1174 L 590 1447 L 317 1447 Z M 317 1174 " clip-rule="nonzero"/></clipPath><clipPath id="1c7937b5d2"><path d="M 508.6875 1092.789062 L 671.277344 1255.375 L 479.472656 1447.179688 L 316.882812 1284.59375 Z M 508.6875 1092.789062 " clip-rule="nonzero"/></clipPath><clipPath id="180ce4649e"><path d="M 589.980469 1174.082031 L 480.050781 1446.601562 L 317.464844 1284.011719 Z M 589.980469 1174.082031 " clip-rule="nonzero"/></clipPath><clipPath id="ea8ac0ec6a"><path d="M 0.28125 0.078125 L 273 0.078125 L 273 272.71875 L 0.28125 272.71875 Z M 0.28125 0.078125 " clip-rule="nonzero"/></clipPath><clipPath id="a258e19d4c"><path d="M 191.6875 -81.210938 L 354.277344 81.375 L 162.472656 273.179688 L -0.117188 110.59375 Z M 191.6875 -81.210938 " clip-rule="nonzero"/></clipPath><clipPath id="8fdcf01933"><path d="M 272.980469 0.0820312 L 163.050781 272.601562 L 0.464844 110.011719 Z M 272.980469 0.0820312 " clip-rule="nonzero"/></clipPath><clipPath id="29d8a663cb"><rect x="0" width="273" y="0" height="273"/></clipPath><clipPath id="0734787be7"><path d="M 905 1174 L 1179 1174 L 1179 1447 L 905 1447 Z M 905 1174 " clip-rule="nonzero"/></clipPath><clipPath id="9b542166e7"><path d="M 824.433594 1255.375 L 987.019531 1092.785156 L 1178.824219 1284.589844 L 1016.234375 1447.179688 Z M 824.433594 1255.375 " clip-rule="nonzero"/></clipPath><clipPath id="0a2fbb367f"><path d="M 905.726562 1174.082031 L 1178.246094 1284.011719 L 1015.65625 1446.597656 Z M 905.726562 1174.082031 " clip-rule="nonzero"/></clipPath><clipPath id="8422d0e788"><path d="M 0.519531 0.078125 L 273.398438 0.078125 L 273.398438 272.71875 L 0.519531 272.71875 Z M 0.519531 0.078125 " clip-rule="nonzero"/></clipPath><clipPath id="9a2369f9e1"><path d="M -80.566406 81.375 L 82.019531 -81.214844 L 273.824219 110.589844 L 111.234375 273.179688 Z M -80.566406 81.375 " clip-rule="nonzero"/></clipPath><clipPath id="a64bd96bf2"><path d="M 0.726562 0.0820312 L 273.246094 110.011719 L 110.65625 272.597656 Z M 0.726562 0.0820312 " clip-rule="nonzero"/></clipPath><clipPath id="6858adc7c1"><rect x="0" width="274" y="0" height="273"/></clipPath><clipPath id="6e07a0f041"><path d="M 903 46 L 1176 46 L 1176 319 L 903 319 Z M 903 46 " clip-rule="nonzero"/></clipPath><clipPath id="698daed2ed"><path d="M 984.347656 400.078125 L 821.757812 237.492188 L 1013.5625 45.6875 L 1176.152344 208.277344 Z M 984.347656 400.078125 " clip-rule="nonzero"/></clipPath><clipPath id="8a0f726edd"><path d="M 903.050781 318.785156 L 1012.980469 46.265625 L 1175.570312 208.855469 Z M 903.050781 318.785156 " clip-rule="nonzero"/></clipPath><clipPath id="e96ff0f9d3"><path d="M 0 0.078125 L 272.761719 0.078125 L 272.761719 272.960938 L 0 272.960938 Z M 0 0.078125 " clip-rule="nonzero"/></clipPath><clipPath id="45c61beb8d"><path d="M 81.347656 354.078125 L -81.242188 191.492188 L 110.5625 -0.3125 L 273.152344 162.277344 Z M 81.347656 354.078125 " clip-rule="nonzero"/></clipPath><clipPath id="ace2df1570"><path d="M 0.0507812 272.785156 L 109.980469 0.265625 L 272.570312 162.855469 Z M 0.0507812 272.785156 " clip-rule="nonzero"/></clipPath><clipPath id="cf2324ccc8"><rect x="0" width="273" y="0" height="273"/></clipPath></defs><rect x="-150" width="1800" fill="#ffffff" y="-149.999993" height="1799.99992" fill-opacity="1"/><rect x="-150" width="1800" fill="#ffffff" y="-149.999993" height="1799.99992" fill-opacity="1"/><g clip-path="url(#34e621e6f5)"><path fill="#ffffff" d="M 866.113281 321.648438 L 634.875 321.648438 L 519.253906 37.507812 L 981.734375 37.507812 Z M 866.113281 321.648438 " fill-opacity="1" fill-rule="nonzero"/></g><g clip-path="url(#a275cce1a8)"><path fill="#ffffff" d="M 634.875 1178.351562 L 866.113281 1178.351562 L 981.734375 1462.492188 L 519.253906 1462.492188 Z M 634.875 1178.351562 " fill-opacity="1" fill-rule="nonzero"/></g><g clip-path="url(#e8b0500169)"><path fill="#ffffff" d="M 583.773438 346.9375 L 583.773438 578.179688 L 299.628906 693.800781 L 299.628906 231.320312 Z M 583.773438 346.9375 " fill-opacity="1" fill-rule="nonzero"/></g><g clip-path="url(#9e25e73be7)"><path fill="#ffffff" d="M 916.417969 578.179688 L 916.417969 346.9375 L 1200.558594 231.320312 L 1200.558594 693.800781 Z M 916.417969 578.179688 " fill-opacity="1" fill-rule="nonzero"/></g><g clip-path="url(#5aeeb2868c)"><path fill="#ffffff" d="M 583.769531 901.792969 L 583.769531 1133.914062 L 298.546875 1249.972656 L 298.546875 785.734375 Z M 583.769531 901.792969 " fill-opacity="1" fill-rule="nonzero"/></g><g clip-path="url(#c001b7b6dc)"><path fill="#ffffff" d="M 917.308594 1134.355469 L 917.308594 903.117188 L 1201.449219 787.496094 L 1201.449219 1249.976562 Z M 917.308594 1134.355469 " fill-opacity="1" fill-rule="nonzero"/></g><g clip-path="url(#6d0fc1c1cf)"><g transform="matrix(1, 0, 0, 1, 299, 351)"><g clip-path="url(#32a28672c8)"><g clip-path="url(#01075600dc)"><path fill="#ffffff" d="M 0.488281 0.453125 L 284.917969 0.453125 L 284.917969 759.296875 L 0.488281 759.296875 Z M 0.488281 0.453125 " fill-opacity="1" fill-rule="nonzero"/></g></g></g></g><g clip-path="url(#aa1a7a37da)"><g transform="matrix(1, 0, 0, 1, 916, 787)"><g clip-path="url(#40b582b6cb)"><g clip-path="url(#66fcaa169f)"><path fill="#ffffff" d="M 0.273438 0.496094 L 283.621094 0.496094 L 283.621094 345.824219 L 0.273438 345.824219 Z M 0.273438 0.496094 " fill-opacity="1" fill-rule="nonzero"/></g></g></g></g><g clip-path="url(#1c888317ec)"><g clip-path="url(#e5e094a169)"><g clip-path="url(#60862c7872)"><g transform="matrix(1, 0, 0, 1, 321, 44)"><g clip-path="url(#36867d3eed)"><g clip-path="url(#e4f7112c75)"><g clip-path="url(#47c352b6ad)"><g clip-path="url(#e886158476)"><path fill="#ffffff" d="M 353.839844 191.710938 L 191.25 354.300781 L 0.0820312 163.128906 L 162.667969 0.542969 Z M 353.839844 191.710938 " fill-opacity="1" fill-rule="nonzero"/></g></g></g></g></g></g></g></g><g clip-path="url(#b83c6cffdd)"><path fill="#b4b4b4" d="M 942.125 676.78125 C 974.96875 732.386719 1044.472656 772.679688 1122.328125 782.535156 C 1145.21875 786.621094 1172.429688 781.03125 1192.992188 788.28125 C 1119.765625 796.472656 1034.144531 805.246094 980.6875 854.324219 C 944.046875 892.109375 922.089844 923.125 917.140625 982.484375 C 900.410156 948.660156 891.675781 907.203125 858.726562 880.414062 C 808.464844 832.632812 738.019531 812.488281 669.3125 808.617188 C 630.917969 805.914062 681.84375 801.582031 692.570312 795.449219 C 734.21875 781.285156 775.789062 765.402344 813.847656 742.992188 C 866.933594 713.5 893.488281 654.636719 909.4375 598.769531 C 909.859375 597.292969 910.582031 595.914062 911.652344 594.804688 C 916.800781 589.496094 914.894531 606.480469 916.648438 617.964844 C 922.558594 639.757812 932.261719 657.875 942.125 676.78125 Z M 942.125 676.78125 " fill-opacity="1" fill-rule="nonzero"/></g><g clip-path="url(#a0780daa1f)"><g clip-path="url(#1c7937b5d2)"><g clip-path="url(#180ce4649e)"><g transform="matrix(1, 0, 0, 1, 317, 1174)"><g clip-path="url(#29d8a663cb)"><g clip-path="url(#ea8ac0ec6a)"><g clip-path="url(#a258e19d4c)"><g clip-path="url(#8fdcf01933)"><path fill="#ffffff" d="M 191.6875 -81.210938 L 354.277344 81.378906 L 163.105469 272.546875 L 0.519531 109.957031 Z M 191.6875 -81.210938 " fill-opacity="1" fill-rule="nonzero"/></g></g></g></g></g></g></g></g><g clip-path="url(#0734787be7)"><g clip-path="url(#9b542166e7)"><g clip-path="url(#0a2fbb367f)"><g transform="matrix(1, 0, 0, 1, 905, 1174)"><g clip-path="url(#6858adc7c1)"><g clip-path="url(#8422d0e788)"><g clip-path="url(#9a2369f9e1)"><g clip-path="url(#a64bd96bf2)"><path fill="#ffffff" d="M -80.566406 81.375 L 82.019531 -81.214844 L 273.191406 109.957031 L 110.601562 272.542969 Z M -80.566406 81.375 " fill-opacity="1" fill-rule="nonzero"/></g></g></g></g></g></g></g></g><g clip-path="url(#6e07a0f041)"><g clip-path="url(#698daed2ed)"><g clip-path="url(#8a0f726edd)"><g transform="matrix(1, 0, 0, 1, 903, 46)"><g clip-path="url(#cf2324ccc8)"><g clip-path="url(#e96ff0f9d3)"><g clip-path="url(#45c61beb8d)"><g clip-path="url(#ace2df1570)"><path fill="#ffffff" d="M 81.347656 354.078125 L -81.242188 191.492188 L 109.925781 0.320312 L 272.515625 162.910156 Z M 81.347656 354.078125 " fill-opacity="1" fill-rule="nonzero"/></g></g></g></g></g></g></g></g></svg>